<?xml version="1.0" standalone="no"?>
<!DOCTYPE svg PUBLIC "-//W3C//DTD SVG 20010904//EN"
 "http://www.w3.org/TR/2001/REC-SVG-20010904/DTD/svg10.dtd">
<svg version="1.0" xmlns="http://www.w3.org/2000/svg"
 width="1200.000000pt" height="438.000000pt" viewBox="0 0 1200.000000 438.000000"
 preserveAspectRatio="xMidYMid meet">

<g transform="translate(0.000000,438.000000) scale(0.100000,-0.100000)"
fill="#000000" stroke="none">
<path d="M0 2190 l0 -2190 468 1 c270 0 459 4 447 9 -11 5 -14 9 -7 9 6 1 12
9 12 19 0 13 -8 17 -37 17 -32 0 -39 4 -41 23 -2 13 1 29 8 36 14 18 -16 25
-155 37 -60 4 -144 18 -185 31 -59 17 -99 21 -185 21 -68 -1 -102 2 -89 7 12
5 24 20 28 34 8 31 50 36 67 8 10 -16 18 -18 63 -10 28 5 65 15 81 23 47 23
138 35 260 35 115 0 135 6 135 42 0 26 14 22 30 -7 7 -13 20 -27 29 -30 24 -7
428 -46 566 -54 66 -4 128 -11 138 -15 10 -5 17 -4 17 3 0 6 11 11 25 11 14 0
25 5 25 10 0 12 47 13 54 1 9 -14 157 -22 236 -12 217 28 254 31 262 23 5 -5
-15 -12 -49 -16 -119 -15 -160 -23 -128 -26 l30 -2 -30 -9 c-28 -8 -28 -8 5
-3 94 14 132 16 126 5 -5 -8 16 -11 68 -11 41 0 77 4 81 9 3 5 50 13 105 16
55 4 97 11 94 16 -3 5 -62 10 -132 11 l-127 1 115 7 c63 4 178 8 255 9 103 1
136 4 125 12 -12 9 -12 10 3 5 10 -3 60 -2 110 4 51 5 142 12 202 15 113 6
179 20 170 35 -9 15 -67 40 -93 40 -14 0 -33 6 -41 14 -17 14 -115 36 -163 36
-15 0 -28 4 -28 9 0 14 -77 28 -273 51 -78 9 -101 9 -113 -1 -13 -10 -17 -10
-24 1 -6 10 -62 15 -232 21 -212 8 -341 17 -543 39 -137 15 -214 13 -221 -5
-8 -21 -19 -19 -47 9 -19 19 -39 25 -93 30 -83 7 -197 22 -317 42 -104 17
-149 18 -164 3 -8 -8 -19 -6 -39 7 -15 11 -51 22 -78 25 l-51 6 43 2 c23 0 42
5 42 11 0 10 -20 16 -80 23 -82 11 -248 39 -293 51 l-49 13 73 11 c41 7 99 16
129 22 30 6 79 8 108 5 75 -9 109 0 117 33 l7 27 16 -27 c9 -15 23 -30 32 -34
25 -10 225 -31 370 -40 84 -5 126 -10 110 -15 -17 -5 -6 -7 38 -8 34 -1 62 -5
62 -11 0 -5 -24 -10 -52 -10 -47 0 -104 -10 -148 -27 -26 -9 59 -33 144 -39
78 -6 82 -5 105 20 31 32 41 33 41 1 0 -14 8 -29 19 -34 28 -15 232 -39 425
-51 159 -9 221 -18 145 -21 -34 -2 -34 -2 6 -8 37 -5 41 -4 52 22 7 16 20 27
32 27 23 0 44 -31 35 -53 -4 -13 14 -15 118 -15 96 1 112 2 73 9 -30 4 14 5
107 3 87 -3 163 -2 169 1 12 8 -39 33 -131 65 -36 12 -70 26 -76 31 -10 8 -90
21 -262 45 -24 3 -41 8 -38 11 3 3 48 0 100 -6 52 -6 191 -16 309 -21 118 -5
267 -17 332 -25 88 -12 120 -13 125 -4 10 15 69 2 93 -19 14 -12 40 -16 100
-17 80 0 81 1 91 27 14 40 -10 61 -116 98 -78 27 -333 131 -393 160 l-20 10
20 -4 c147 -34 332 -84 423 -113 98 -33 116 -36 143 -26 28 11 32 10 36 -7 7
-25 32 -41 134 -83 96 -39 339 -126 384 -137 17 -4 70 -19 118 -34 135 -39
303 -74 397 -81 47 -4 103 -11 125 -15 22 -5 139 -16 260 -24 194 -14 317 -16
540 -13 33 1 105 0 160 -1 508 -10 1415 18 1525 47 19 5 69 12 110 15 66 6
195 36 422 100 108 31 217 77 223 95 4 13 17 17 58 17 56 0 117 19 130 41 4 7
20 13 35 13 30 -1 54 4 227 48 66 17 138 34 160 38 l40 6 -38 -26 c-21 -14
-50 -26 -65 -26 -15 0 -47 -10 -72 -21 -50 -23 -192 -78 -285 -111 -67 -23
-91 -40 -80 -58 7 -12 67 -8 155 11 25 5 95 18 155 30 144 26 165 35 172 70 7
34 21 36 65 9 42 -26 73 -25 270 4 90 14 233 30 318 36 85 7 165 17 177 22 16
8 26 8 35 0 9 -7 51 -6 143 4 72 7 160 17 197 20 37 4 65 10 63 14 -7 11 21
20 64 20 21 0 84 6 142 14 57 8 181 22 274 31 191 19 231 28 240 56 7 23 35
26 35 4 0 -27 48 -36 144 -30 62 5 127 2 204 -9 62 -9 132 -16 155 -17 36 -1
38 -2 17 -9 -14 -4 -47 -9 -75 -10 -33 -1 -44 -4 -31 -9 11 -4 -73 -15 -193
-24 -210 -17 -251 -26 -280 -61 -19 -22 -29 -20 -33 7 l-3 22 -300 -2 c-165
-1 -347 -6 -405 -12 -170 -18 -344 -43 -355 -51 -8 -6 -87 -27 -172 -45 -16
-4 -21 -12 -20 -31 2 -30 -22 -50 -47 -41 -9 4 -16 17 -16 32 0 23 -3 25 -27
19 -53 -12 -63 -15 -63 -25 0 -6 -14 -7 -34 -4 -31 6 -144 -12 -223 -37 l-32
-9 38 -39 c49 -50 81 -55 233 -40 104 11 126 16 141 34 16 20 18 20 30 4 8
-10 22 -15 33 -13 43 10 228 26 354 30 74 2 205 6 290 9 l155 5 -110 -19 c-60
-10 -139 -30 -175 -45 -36 -14 -101 -35 -145 -45 -44 -10 -69 -19 -56 -19 48
-2 6 -19 -57 -24 -59 -4 -97 -16 -56 -18 10 0 1 -6 -21 -14 l-40 -13 40 -1
c74 -2 145 -14 139 -23 -7 -11 343 -9 411 3 155 26 183 32 215 45 19 8 57 18
83 24 66 14 124 45 132 71 7 21 16 22 71 8 5 -1 30 1 57 5 31 6 47 13 47 23 0
11 7 13 24 9 13 -3 48 2 77 12 30 10 100 27 157 37 56 10 98 22 92 25 -6 4 16
10 50 13 33 4 73 9 88 12 27 5 27 5 -3 -9 -16 -8 -49 -19 -72 -25 -23 -6 -48
-18 -55 -25 -8 -7 -68 -34 -133 -60 -66 -26 -133 -53 -150 -61 -16 -7 -43 -17
-58 -20 -25 -7 -47 -37 -47 -66 0 -15 50 -10 56 6 8 19 30 19 38 0 4 -12 30
-15 143 -15 76 0 154 -4 173 -10 19 -5 86 -17 149 -25 63 -8 130 -20 150 -26
85 -26 99 -29 127 -29 16 0 45 -5 64 -10 39 -12 139 -18 311 -20 124 -2 163
-11 116 -29 -16 -6 -35 -11 -43 -11 -8 0 -14 -4 -14 -9 0 -12 56 -19 163 -23
l77 -3 0 2117 0 2118 -6000 0 -6000 0 0 -2190z m1408 2138 c-2 -15 -10 -23
-23 -23 -13 0 -21 8 -23 23 -3 18 1 22 23 22 22 0 26 -4 23 -22z m9361 -61 c8
-10 7 -18 -2 -31 -11 -15 -15 -15 -32 -2 -16 12 -17 16 -6 30 16 19 25 20 40
3z m-10491 -65 c3 -17 -2 -22 -17 -22 -14 0 -21 6 -21 18 0 38 33 41 38 4z
m11132 7 c0 -5 -4 -9 -10 -9 -5 0 -10 7 -10 16 0 8 5 12 10 9 6 -3 10 -10 10
-16z m-10182 -122 c-2 -16 -10 -22 -28 -22 -28 0 -39 27 -20 50 18 21 52 1 48
-28z m422 8 c19 -23 8 -50 -20 -50 -16 0 -26 6 -28 18 -4 18 14 47 28 47 4 0
13 -7 20 -15z m505 5 c3 -5 1 -10 -4 -10 -6 0 -11 5 -11 10 0 6 2 10 4 10 3 0
8 -4 11 -10z m435 -20 c0 -5 -4 -10 -10 -10 -5 0 -10 5 -10 10 0 6 5 10 10 10
6 0 10 -4 10 -10z m-1745 -148 c7 -20 -19 -47 -39 -39 -19 7 -21 53 -3 60 18
6 35 -2 42 -21z m925 -2 c0 -5 -4 -10 -10 -10 -5 0 -10 5 -10 10 0 6 5 10 10
10 6 0 10 -4 10 -10z m9606 -1 c8 -14 -21 -43 -35 -35 -19 12 -13 46 8 46 11
0 23 -5 27 -11z m-1168 -75 c4 -29 -23 -51 -43 -34 -16 13 -20 42 -8 54 14 14
48 1 51 -20z m302 16 c0 -5 -4 -10 -10 -10 -5 0 -10 5 -10 10 0 6 5 10 10 10
6 0 10 -4 10 -10z m-10185 -70 c3 -5 0 -7 -8 -4 -8 3 -18 1 -22 -5 -3 -6 4
-15 17 -20 23 -10 23 -10 1 -10 -25 -1 -37 13 -29 34 6 17 32 20 41 5z m665
-75 c0 -8 -4 -15 -10 -15 -5 0 -10 7 -10 15 0 8 5 15 10 15 6 0 10 -7 10 -15z
m10428 -223 c3 -16 -2 -22 -17 -22 -26 0 -36 17 -20 36 16 19 33 13 37 -14z
m-10608 8 c0 -5 -7 -10 -15 -10 -8 0 -15 5 -15 10 0 6 7 10 15 10 8 0 15 -4
15 -10z m-290 -200 c0 -5 -4 -10 -10 -10 -5 0 -10 5 -10 10 0 6 5 10 10 10 6
0 10 -4 10 -10z m248 -93 c4 -21 -27 -35 -38 -17 -12 19 0 42 19 38 9 -2 17
-11 19 -21z m10086 -109 c14 -22 -12 -52 -37 -42 -17 6 -23 44 -10 58 11 11
35 3 47 -16z m-10514 -6 c0 -13 -12 -22 -22 -16 -10 6 -1 24 13 24 5 0 9 -4 9
-8z m11542 -17 c0 -5 -5 -11 -11 -13 -6 -2 -11 4 -11 13 0 9 5 15 11 13 6 -2
11 -8 11 -13z m-182 -215 c0 -5 -4 -10 -10 -10 -5 0 -10 5 -10 10 0 6 5 10 10
10 6 0 10 -4 10 -10z m-11402 -68 c3 -16 -2 -22 -16 -22 -24 0 -35 23 -19 39
16 16 31 8 35 -17z m488 3 c-3 -9 0 -15 10 -15 11 0 14 6 10 16 -3 8 -2 12 4
9 15 -9 12 -35 -6 -42 -20 -7 -38 11 -31 31 4 9 9 16 13 16 3 0 4 -7 0 -15z
m10880 -216 c8 -14 -21 -43 -35 -35 -6 4 -11 16 -11 27 0 21 34 27 46 8z
m-5740 -30 c3 -6 1 -16 -5 -22 -9 -9 -14 -8 -21 3 -9 15 -4 30 10 30 5 0 12
-5 16 -11z m-5675 -150 c9 -17 8 -25 -4 -37 -21 -20 -47 -8 -47 21 0 42 31 52
51 16z m97 -22 c4 -20 -25 -34 -40 -19 -15 15 -1 44 19 40 10 -2 19 -11 21
-21z m832 13 c0 -5 -2 -10 -4 -10 -3 0 -8 5 -11 10 -3 6 -1 10 4 10 6 0 11 -4
11 -10z m660 -31 c0 -5 -7 -9 -15 -9 -15 0 -20 12 -9 23 8 8 24 -1 24 -14z
m10078 -20 c-2 -6 -8 -10 -13 -10 -5 0 -11 4 -13 10 -2 6 4 11 13 11 9 0 15
-5 13 -11z m-6180 -10 c-2 -6 -8 -10 -13 -10 -5 0 -11 4 -13 10 -2 6 4 11 13
11 9 0 15 -5 13 -11z m5970 -173 c6 -29 -15 -43 -35 -24 -14 14 -14 20 -3 33
16 19 34 15 38 -9z m-10058 -6 c0 -5 -4 -10 -10 -10 -5 0 -10 5 -10 10 0 6 5
10 10 10 6 0 10 -4 10 -10z m6222 -95 c0 -5 -5 -11 -11 -13 -6 -2 -11 4 -11
13 0 9 5 15 11 13 6 -2 11 -8 11 -13z m4006 -13 c3 -16 -2 -22 -17 -22 -26 0
-36 17 -20 36 16 19 33 13 37 -14z m-6180 -10 c3 -16 -2 -22 -16 -22 -22 0
-32 17 -24 38 7 20 37 9 40 -16z m-858 -52 c0 -5 -4 -10 -10 -10 -5 0 -10 5
-10 10 0 6 5 10 10 10 6 0 10 -4 10 -10z m6471 -13 c-1 -12 -15 -9 -19 4 -3 6
1 10 8 8 6 -3 11 -8 11 -12z m-7376 -37 c-5 -8 -11 -8 -17 -2 -6 6 -7 16 -3
22 5 8 11 8 17 2 6 -6 7 -16 3 -22z m5955 -1 c0 -5 -7 -9 -15 -9 -15 0 -20 12
-9 23 8 8 24 -1 24 -14z m-6870 -30 c0 -5 -7 -9 -15 -9 -15 0 -20 12 -9 23 8
8 24 -1 24 -14z m-1407 -31 c6 -19 -3 -38 -18 -38 -18 0 -28 17 -21 35 7 18
33 20 39 3z m6077 -28 c0 -5 -7 -10 -15 -10 -8 0 -15 5 -15 10 0 6 7 10 15 10
8 0 15 -4 15 -10z m-6940 -40 c0 -5 -4 -10 -10 -10 -5 0 -10 5 -10 10 0 6 5
10 10 10 6 0 10 -4 10 -10z m10394 -42 c14 -22 -12 -52 -37 -42 -17 6 -23 44
-10 58 11 11 35 3 47 -16z m-7394 -33 c0 -8 -4 -15 -10 -15 -5 0 -10 7 -10 15
0 8 5 15 10 15 6 0 10 -7 10 -15z m5951 -8 c-1 -12 -15 -9 -19 4 -3 6 1 10 8
8 6 -3 11 -8 11 -12z m-6871 -27 c0 -5 -4 -10 -10 -10 -5 0 -10 5 -10 10 0 6
5 10 10 10 6 0 10 -4 10 -10z m9098 -63 c4 -20 -25 -34 -40 -19 -15 15 -1 44
19 40 10 -2 19 -11 21 -21z m-6180 -9 c-2 -15 -11 -24 -25 -26 -19 -3 -23 1
-23 22 0 21 5 26 26 26 21 0 25 -4 22 -22z m1902 -73 c0 -18 -5 -25 -19 -25
-11 0 -21 6 -24 13 -7 20 4 37 24 37 14 0 19 -7 19 -25z m3880 -35 c0 -5 -7
-10 -16 -10 -8 0 -12 5 -9 10 3 6 10 10 16 10 5 0 9 -4 9 -10z m-4325 -30 c-5
-8 -11 -8 -17 -2 -6 6 -7 16 -3 22 5 8 11 8 17 2 6 -6 7 -16 3 -22z m-415 10
c0 -5 -4 -10 -10 -10 -5 0 -10 5 -10 10 0 6 5 10 10 10 6 0 10 -4 10 -10z
m4298 -28 c3 -17 -2 -22 -17 -22 -14 0 -21 6 -21 18 0 38 33 41 38 4z m-9428
-22 c0 -24 -26 -38 -42 -22 -16 16 -2 42 22 42 13 0 20 -7 20 -20z m2050 5
c15 -18 5 -35 -21 -35 -12 0 -19 7 -19 18 0 33 20 42 40 17z m5958 -18 c4 -20
-25 -34 -40 -19 -15 15 -1 44 19 40 10 -2 19 -11 21 -21z m-6870 -30 c4 -20
-25 -34 -40 -19 -15 15 -1 44 19 40 10 -2 19 -11 21 -21z m7432 13 c0 -5 -4
-10 -10 -10 -5 0 -10 5 -10 10 0 6 5 10 10 10 6 0 10 -4 10 -10z m-7380 -30
c0 -5 -4 -10 -10 -10 -5 0 -10 5 -10 10 0 6 5 10 10 10 6 0 10 -4 10 -10z
m5950 -10 c0 -5 -4 -10 -10 -10 -5 0 -10 5 -10 10 0 6 5 10 10 10 6 0 10 -4
10 -10z m-6870 -30 c0 -5 -2 -10 -4 -10 -3 0 -8 5 -11 10 -3 6 -1 10 4 10 6 0
11 -4 11 -10z m9412 -45 c0 -5 -5 -11 -11 -13 -6 -2 -11 4 -11 13 0 9 5 15 11
13 6 -2 11 -8 11 -13z m-4320 -20 c0 -5 -5 -11 -11 -13 -6 -2 -11 4 -11 13 0
9 5 15 11 13 6 -2 11 -8 11 -13z m-1832 -55 c0 -24 -15 -40 -36 -40 -20 0 -24
5 -24 29 0 16 6 31 13 34 14 5 47 -10 47 -23z m6170 15 c10 -12 10 -18 0 -30
-26 -32 -68 -8 -54 30 4 8 14 15 24 15 10 0 23 -7 30 -15z m-5250 -15 c0 -5
-5 -10 -11 -10 -5 0 -7 5 -4 10 3 6 8 10 11 10 2 0 4 -4 4 -10z m3970 -61 c0
-5 -7 -9 -15 -9 -15 0 -20 12 -9 23 8 8 24 -1 24 -14z m-9589 -12 c-13 -13
-26 -3 -16 12 3 6 11 8 17 5 6 -4 6 -10 -1 -17z m4067 -5 c2 -7 -3 -12 -12
-12 -9 0 -16 7 -16 16 0 17 22 14 28 -4z m3140 -16 c-2 -13 -10 -21 -23 -21
-23 0 -33 34 -14 45 20 13 40 -1 37 -24z m-1538 -1 c0 -8 -7 -15 -15 -15 -8 0
-15 7 -15 15 0 8 7 15 15 15 8 0 15 -7 15 -15z m-290 -31 c0 -9 -5 -14 -12
-12 -18 6 -21 28 -4 28 9 0 16 -7 16 -16z m-4776 -47 c13 -20 -2 -50 -27 -55
-22 -4 -34 43 -17 63 15 18 29 15 44 -8z m10044 -5 c3 -18 -1 -22 -22 -22 -19
0 -26 5 -26 18 0 39 43 43 48 4z m492 12 c0 -8 -4 -12 -10 -9 -5 3 -10 10 -10
16 0 5 5 9 10 9 6 0 10 -7 10 -16z m-7867 -26 c7 -21 -4 -38 -23 -38 -23 0
-34 16 -26 35 7 18 43 20 49 3z m5952 -23 c0 -22 -31 -33 -47 -17 -17 17 -1
44 24 40 15 -2 23 -10 23 -23z m1593 2 c4 -20 -25 -34 -40 -19 -15 15 -1 44
19 40 10 -2 19 -11 21 -21z m-8464 -20 c8 -12 7 -21 -5 -32 -21 -21 -49 -9
-49 20 0 36 34 44 54 12z m4144 0 c4 -20 -25 -34 -40 -19 -15 15 -1 44 19 40
10 -2 19 -11 21 -21z m-5276 -2 c0 -5 -5 -11 -11 -13 -6 -2 -11 4 -11 13 0 9
5 15 11 13 6 -2 11 -8 11 -13z m8178 -35 c0 -5 -4 -10 -10 -10 -5 0 -10 5 -10
10 0 6 5 10 10 10 6 0 10 -4 10 -10z m550 0 c0 -5 -5 -10 -11 -10 -5 0 -7 5
-4 10 3 6 8 10 11 10 2 0 4 -4 4 -10z m-10130 -10 c0 -5 -4 -10 -10 -10 -5 0
-10 5 -10 10 0 6 5 10 10 10 6 0 10 -4 10 -10z m4060 -10 c0 -5 -4 -10 -10
-10 -5 0 -10 5 -10 10 0 6 5 10 10 10 6 0 10 -4 10 -10z m1750 0 c0 -5 -4 -10
-10 -10 -5 0 -10 5 -10 10 0 6 5 10 10 10 6 0 10 -4 10 -10z m5690 -8 c0 -13
-12 -22 -22 -16 -10 6 -1 24 13 24 5 0 9 -4 9 -8z m-5840 -12 c0 -5 -4 -10
-10 -10 -5 0 -10 5 -10 10 0 6 5 10 10 10 6 0 10 -4 10 -10z m-290 -25 c0 -8
-4 -15 -10 -15 -5 0 -10 7 -10 15 0 8 5 15 10 15 6 0 10 -7 10 -15z m-2355
-35 c-5 -8 -11 -8 -17 -2 -6 6 -7 16 -3 22 5 8 11 8 17 2 6 -6 7 -16 3 -22z
m8125 -5 c0 -8 -4 -15 -9 -15 -13 0 -22 16 -14 24 11 11 23 6 23 -9z m-9920
-75 c0 -11 -7 -20 -15 -20 -15 0 -21 21 -8 33 12 13 23 7 23 -13z m9700 -20
c0 -11 -4 -20 -9 -20 -14 0 -23 18 -16 30 10 17 25 11 25 -10z m-4096 -12 c13
-22 -14 -54 -38 -45 -16 6 -22 48 -9 61 11 11 35 3 47 -16z m-5519 2 c-3 -5
-23 -10 -43 -10 -28 0 -33 3 -22 10 20 13 73 13 65 0z m138 3 c-24 -2 -62 -2
-85 0 -24 2 -5 4 42 4 47 0 66 -2 43 -4z m307 -9 c0 -8 -5 -12 -10 -9 -6 4 -8
11 -5 16 9 14 15 11 15 -7z m6000 -4 c0 -5 -4 -10 -10 -10 -5 0 -10 5 -10 10
0 6 5 10 10 10 6 0 10 -4 10 -10z m-5903 -16 c-3 -3 -12 -4 -19 -1 -8 3 -5 6
6 6 11 1 17 -2 13 -5z m9471 -6 c-6 -18 -28 -21 -28 -4 0 9 7 16 16 16 9 0 14
-5 12 -12z m-1773 -53 c0 -13 -8 -21 -22 -23 -19 -3 -23 1 -23 23 0 22 4 26
23 23 14 -2 22 -10 22 -23z m-9580 -10 c0 -23 -34 -33 -45 -14 -13 20 1 40 24
37 13 -2 21 -10 21 -23z m10301 3 c4 -15 1 -25 -11 -34 -25 -18 -45 -6 -45 27
0 24 4 29 24 29 17 0 27 -7 32 -22z m-6243 -1 c8 -20 -9 -41 -27 -34 -23 9
-21 47 3 47 10 0 21 -6 24 -13z m7167 3 c0 -5 -5 -10 -11 -10 -5 0 -7 5 -4 10
3 6 8 10 11 10 2 0 4 -4 4 -10z m-5565 -35 c0 -30 -39 -27 -43 3 -3 20 0 23
20 20 15 -2 23 -10 23 -23z m-297 -41 c-19 -19 -38 -11 -38 16 0 24 21 31 40
14 12 -12 12 -16 -2 -30z m4442 36 c0 -5 -4 -10 -10 -10 -5 0 -10 5 -10 10 0
6 5 10 10 10 6 0 10 -4 10 -10z m548 -8 c2 -7 -3 -12 -12 -12 -9 0 -16 7 -16
16 0 17 22 14 28 -4z m727 -17 c0 -22 -31 -33 -47 -17 -17 17 -1 44 24 40 15
-2 23 -10 23 -23z m-4318 -11 c3 -8 -2 -23 -11 -32 -15 -15 -17 -15 -32 0 -21
21 -11 48 16 48 11 0 23 -7 27 -16z m4368 -25 c0 -28 -23 -32 -39 -6 -8 14 -8
20 4 27 22 14 35 6 35 -21z m-9012 14 c-18 -2 -48 -2 -65 0 -18 2 -4 4 32 4
36 0 50 -2 33 -4z m2677 -3 c0 -5 -2 -10 -4 -10 -3 0 -8 5 -11 10 -3 6 -1 10
4 10 6 0 11 -4 11 -10z m-290 -26 c0 -8 -5 -12 -10 -9 -6 4 -8 11 -5 16 9 14
15 11 15 -7z m6262 1 c0 -5 -5 -11 -11 -13 -6 -2 -11 4 -11 13 0 9 5 15 11 13
6 -2 11 -8 11 -13z m-10187 -40 c0 -13 -8 -21 -22 -23 -19 -3 -23 1 -23 23 0
22 4 26 23 23 14 -2 22 -10 22 -23z m640 -20 c0 -25 -40 -33 -49 -10 -9 24 2
37 27 33 14 -2 22 -10 22 -23z m-865 -56 c0 -5 -4 -9 -10 -9 -5 0 -10 7 -10
16 0 8 5 12 10 9 6 -3 10 -10 10 -16z m10955 -9 c0 -29 -32 -41 -41 -16 -9 24
4 48 23 44 12 -2 18 -12 18 -28z m-885 -10 c0 -5 -7 -10 -15 -10 -8 0 -15 5
-15 10 0 6 7 10 15 10 8 0 15 -4 15 -10z m-7570 -10 c0 -5 -2 -10 -4 -10 -3 0
-8 5 -11 10 -3 6 -1 10 4 10 6 0 11 -4 11 -10z m-19 -21 c15 -28 -9 -54 -40
-44 -20 6 -29 43 -14 58 13 14 43 6 54 -14z m7619 -14 c0 -8 -7 -15 -15 -15
-8 0 -15 7 -15 15 0 8 7 15 15 15 8 0 15 -7 15 -15z m-8484 -46 c10 -17 -13
-36 -27 -22 -12 12 -4 33 11 33 5 0 12 -5 16 -11z m-231 -49 c15 -6 9 -9 -25
-9 -34 0 -40 3 -25 9 11 5 22 9 25 9 3 0 14 -4 25 -9z m9595 -10 c0 -5 -4 -10
-10 -10 -5 0 -10 5 -10 10 0 6 5 10 10 10 6 0 10 -4 10 -10z m-9282 -37 c-16
-2 -40 -2 -55 0 -16 2 -3 4 27 4 30 0 43 -2 28 -4z"/>
<path d="M10751 4254 c0 -11 3 -14 6 -6 3 7 2 16 -1 19 -3 4 -6 -2 -5 -13z"/>
<path d="M11390 3505 c0 -8 5 -15 10 -15 6 0 10 7 10 15 0 8 -4 15 -10 15 -5
0 -10 -7 -10 -15z"/>
<path d="M315 2390 c3 -5 10 -10 16 -10 5 0 9 5 9 10 0 6 -7 10 -16 10 -8 0
-12 -4 -9 -10z"/>
<path d="M11680 2165 c0 -8 5 -15 10 -15 6 0 10 7 10 15 0 8 -4 15 -10 15 -5
0 -10 -7 -10 -15z"/>
<path d="M11890 1634 c0 -9 5 -14 12 -12 18 6 21 28 4 28 -9 0 -16 -7 -16 -16z"/>
<path d="M1630 1450 c0 -5 5 -10 10 -10 6 0 10 5 10 10 0 6 -4 10 -10 10 -5 0
-10 -4 -10 -10z"/>
<path d="M11110 1054 c0 -8 5 -12 10 -9 6 4 8 11 5 16 -9 14 -15 11 -15 -7z"/>
<path d="M3490 645 c-20 -24 -5 -42 47 -58 57 -18 221 -42 230 -33 10 10 1 14
-108 55 -136 50 -154 54 -169 36z"/>
<path d="M2065 580 c11 -5 29 -9 40 -9 17 -1 17 1 5 9 -8 5 -26 9 -40 9 -23 0
-23 -1 -5 -9z"/>
<path d="M8633 524 c-55 -27 -54 -74 1 -74 55 1 86 46 54 78 -15 15 -16 15
-55 -4z"/>
<path d="M8380 499 c-36 -5 -77 -14 -92 -20 -15 -6 -51 -14 -80 -18 -43 -5
-52 -10 -50 -24 2 -14 -6 -17 -57 -17 -33 0 -63 -5 -66 -11 -5 -7 14 -9 59 -7
50 3 66 0 66 -10 0 -8 7 -11 18 -8 9 3 70 8 135 12 65 4 120 11 123 15 3 5 -1
9 -8 10 -7 1 7 5 31 10 52 10 52 10 45 36 -5 16 -47 48 -57 42 -1 -1 -31 -5
-67 -10z"/>
<path d="M2608 253 c7 -3 16 -2 19 1 4 3 -2 6 -13 5 -11 0 -14 -3 -6 -6z"/>
<path d="M2128 173 c7 -3 16 -2 19 1 4 3 -2 6 -13 5 -11 0 -14 -3 -6 -6z"/>
<path d="M2223 163 c15 -2 39 -2 55 0 15 2 2 4 -28 4 -30 0 -43 -2 -27 -4z"/>
<path d="M11710 166 c0 -2 9 -6 20 -9 11 -3 18 -1 14 4 -5 9 -34 13 -34 5z"/>
<path d="M986 101 c-3 -5 -1 -21 5 -35 11 -23 18 -26 58 -25 98 1 221 34 200
53 -11 9 -257 17 -263 7z"/>
<path d="M1285 80 c-16 -7 -13 -9 17 -9 20 -1 40 4 43 9 7 12 -32 12 -60 0z"/>
</g>
</svg>
